<svg width="6" height="10" viewBox="0 0 6 10" fill="none" xmlns="http://www.w3.org/2000/svg">
<path d="M5.20286 0.00208067L3.9061 0C2.44923 0 1.50774 0.96595 1.50774 2.46101V3.59571H0.203903C0.0912365 3.59571 0 3.68705 0 3.79971V5.44375C0 5.55642 0.0913405 5.64766 0.203903 5.64766H1.50774V9.79609C1.50774 9.90876 1.59898 10 1.71164 10H3.41278C3.52545 10 3.61668 9.90866 3.61668 9.79609V5.64766H5.14117C5.25384 5.64766 5.34508 5.55642 5.34508 5.44375L5.3457 3.79971C5.3457 3.74562 5.32417 3.69381 5.28599 3.65552C5.24781 3.61724 5.19579 3.59571 5.14169 3.59571H3.61668V2.63381C3.61668 2.17149 3.72685 1.93679 4.3291 1.93679L5.20266 1.93648C5.31522 1.93648 5.40646 1.84514 5.40646 1.73257V0.205986C5.40646 0.093526 5.31532 0.00228873 5.20286 0.00208067Z" fill="#64378F"/>
</svg>
