<svg width="40" height="39" viewBox="0 0 40 39" fill="none" xmlns="http://www.w3.org/2000/svg">
<g clip-path="url(#clip0)">
<path d="M2.98509 20.1307C3.00385 20.1604 3.02656 20.1872 3.05026 20.2102L18.7686 36.4041C18.8822 36.5209 19.0362 36.5879 19.2071 36.5927H19.2189C19.3799 36.5927 19.5319 36.5333 19.6485 36.4242L36.8125 20.3318C36.8204 20.326 36.8875 20.2666 36.928 20.2283C36.9616 20.1977 36.9892 20.1661 36.9952 20.1508C38.9326 18.2053 40 15.649 40 12.9538C40 7.23415 35.201 2.58105 29.3009 2.58105C25.4399 2.58105 21.8969 4.58591 20 7.82775C18.1041 4.58495 14.5611 2.58105 10.6991 2.58105C4.79905 2.58105 6.85757e-07 7.23415 6.85757e-07 12.9538C-0.000986774 15.648 1.06448 18.2024 2.98509 20.1307ZM10.6981 3.7788C14.5245 3.7788 17.952 5.99237 19.4293 9.419C19.526 9.64208 19.7492 9.78569 19.999 9.78569C20.2479 9.78569 20.472 9.64208 20.5688 9.41804C22.047 5.99237 25.4745 3.7788 29.3009 3.7788C34.5196 3.7788 38.7657 7.89573 38.7657 12.9548C38.7657 15.3685 37.7999 17.65 36.0462 19.381C36.0294 19.3983 36.0146 19.4145 36.0018 19.4318L19.2387 35.1412L4.0318 19.4796C4.00909 19.4442 3.98242 19.4107 3.95082 19.3801C2.19808 17.6519 1.23334 15.3704 1.23334 12.9548C1.23334 7.89477 5.47941 3.7788 10.6981 3.7788Z" fill="#64378F"/>
</g>
<defs>
<clipPath id="clip0">
<rect y="0.195312" width="40" height="38.7834" fill="white"/>
</clipPath>
</defs>
</svg>
