<svg width="40" height="34" viewBox="0 0 40 34" fill="none" xmlns="http://www.w3.org/2000/svg">
<path d="M30.7688 30.7703C30.7688 31.62 31.0701 32.3449 31.6706 32.9454C32.2711 33.5465 32.9966 33.8472 33.8467 33.8472C34.6954 33.8472 35.4209 33.5465 36.0214 32.9454C36.6225 32.3449 36.9232 31.62 36.9232 30.7703C36.9232 29.9206 36.6228 29.1957 36.0214 28.5946C35.4209 27.9941 34.6954 27.6934 33.8467 27.6934C32.9966 27.6934 32.2711 27.9941 31.6706 28.5946C31.0701 29.1957 30.7688 29.9206 30.7688 30.7703Z" fill="#64378F"/>
<path d="M39.5432 3.53343C39.2385 3.2289 38.8782 3.07659 38.4614 3.07659H9.5914C9.57515 2.96452 9.53911 2.76035 9.48304 2.4639C9.42696 2.16728 9.38301 1.93102 9.35093 1.75455C9.31869 1.57883 9.25891 1.36632 9.17059 1.11795C9.08244 0.869402 8.97829 0.67289 8.85814 0.529C8.73816 0.384352 8.57794 0.260501 8.37755 0.156014C8.17733 0.0522012 7.94883 0 7.69253 0H1.53876C1.12182 0 0.761297 0.152562 0.456846 0.456676C0.15231 0.761127 0 1.1219 0 1.5385C0 1.9551 0.15231 2.31571 0.456846 2.62016C0.76155 2.9247 1.12216 3.07684 1.53876 3.07684H6.44206L10.6966 22.8608C10.6648 22.9247 10.5005 23.2289 10.2039 23.7741C9.90747 24.3193 9.67113 24.7958 9.495 25.2044C9.31877 25.6135 9.23062 25.9298 9.23062 26.1541C9.23062 26.5707 9.38293 26.9314 9.6873 27.2363C9.99217 27.5399 10.3526 27.6927 10.7693 27.6927H12.3077H33.8462H35.3837C35.8003 27.6927 36.161 27.54 36.4654 27.2363C36.7702 26.9314 36.9223 26.5707 36.9223 26.1541C36.9223 25.7374 36.7702 25.3767 36.4654 25.0724C36.1611 24.7681 35.8004 24.6154 35.3837 24.6154H13.2689C13.6537 23.846 13.846 23.3338 13.846 23.0773C13.846 22.9166 13.8259 22.7402 13.7858 22.5483C13.7456 22.3564 13.6976 22.1437 13.6415 21.911C13.5854 21.6793 13.5495 21.507 13.5335 21.3947L38.6303 18.462C39.0305 18.4136 39.3593 18.242 39.6156 17.9451C39.8721 17.6489 40 17.3084 40 16.9235V4.6156C39.9998 4.199 39.8479 3.83839 39.5432 3.53343Z" fill="#64378F"/>
<path d="M9.23047 30.7703C9.23047 31.62 9.53079 32.3449 10.1319 32.9454C10.7331 33.5465 11.4579 33.8472 12.3076 33.8472C13.1567 33.8472 13.8819 33.5465 14.4828 32.9454C15.0838 32.3449 15.3845 31.62 15.3845 30.7703C15.3845 29.9206 15.0841 29.1957 14.4828 28.5946C13.8819 27.9941 13.1567 27.6934 12.3076 27.6934C11.458 27.6934 10.7328 27.9941 10.1319 28.5946C9.53113 29.1957 9.23047 29.9206 9.23047 30.7703Z" fill="#64378F"/>
</svg>
