<svg width="20" height="20" viewBox="0 0 20 20" fill="none" xmlns="http://www.w3.org/2000/svg">
<path d="M15.3843 16.3851C15.3843 16.81 15.5349 17.1725 15.8352 17.4727C16.1354 17.7732 16.4982 17.9236 16.9232 17.9236C17.3476 17.9236 17.7103 17.7732 18.0106 17.4727C18.3111 17.1725 18.4615 16.81 18.4615 16.3851C18.4615 15.9603 18.3113 15.5978 18.0106 15.2973C17.7103 14.9971 17.3476 14.8467 16.9232 14.8467C16.4982 14.8467 16.1354 14.9971 15.8352 15.2973C15.5349 15.5978 15.3843 15.9603 15.3843 16.3851Z" fill="#EAEAEA"/>
<path d="M19.7716 2.76672C19.6193 2.61445 19.4391 2.53829 19.2307 2.53829H4.7957C4.78757 2.48226 4.76956 2.38017 4.74152 2.23195C4.71348 2.08364 4.69151 1.96551 4.67547 1.87727C4.65934 1.78942 4.62946 1.68316 4.58529 1.55897C4.54122 1.4347 4.48914 1.33645 4.42907 1.2645C4.36908 1.19218 4.28897 1.13025 4.18878 1.07801C4.08867 1.0261 3.97441 1 3.84627 1H0.76938C0.560911 1 0.380648 1.07628 0.228423 1.22834C0.076155 1.38056 0 1.56095 0 1.76925C0 1.97755 0.076155 2.15786 0.228423 2.31008C0.380775 2.46235 0.56108 2.53842 0.76938 2.53842H3.22103L5.34832 12.4304C5.3324 12.4624 5.25027 12.6145 5.10196 12.8871C4.95373 13.1596 4.83557 13.3979 4.7475 13.6022C4.65939 13.8068 4.61531 13.9649 4.61531 14.077C4.61531 14.2853 4.69146 14.4657 4.84365 14.6182C4.99608 14.77 5.17631 14.8464 5.38465 14.8464H6.15386H16.9231H17.6919C17.9002 14.8464 18.0805 14.77 18.2327 14.6182C18.3851 14.4657 18.4612 14.2854 18.4612 14.077C18.4612 13.8687 18.3851 13.6883 18.2327 13.5362C18.0805 13.3841 17.9002 13.3077 17.6919 13.3077H6.63445C6.82683 12.923 6.92299 12.6669 6.92299 12.5387C6.92299 12.4583 6.91297 12.3701 6.89289 12.2742C6.87281 12.1782 6.84881 12.0719 6.82077 11.9555C6.79269 11.8397 6.77476 11.7535 6.76676 11.6973L19.3152 10.231C19.5152 10.2068 19.6796 10.121 19.8078 9.97254C19.9361 9.82444 20 9.6542 20 9.46177V3.3078C19.9999 3.0995 19.924 2.91919 19.7716 2.76672Z" fill="#EAEAEA"/>
<path d="M4.61523 16.3851C4.61523 16.81 4.7654 17.1725 5.06593 17.4727C5.36655 17.7732 5.72897 17.9236 6.15378 17.9236C6.57834 17.9236 6.94097 17.7732 7.24138 17.4727C7.54192 17.1725 7.69225 16.81 7.69225 16.3851C7.69225 15.9603 7.54204 15.5978 7.24138 15.2973C6.94093 14.9971 6.57834 14.8467 6.15378 14.8467C5.72902 14.8467 5.36639 14.9971 5.06593 15.2973C4.76557 15.5978 4.61523 15.9603 4.61523 16.3851Z" fill="#EAEAEA"/>
</svg>
