<svg width="10" height="10" viewBox="0 0 10 10" fill="none" xmlns="http://www.w3.org/2000/svg">
<path d="M7.69238 8.46259C7.69238 8.67501 7.76772 8.85625 7.91784 9.00637C8.06796 9.15663 8.24934 9.23182 8.46185 9.23182C8.67404 9.23182 8.85542 9.15663 9.00554 9.00637C9.1558 8.85625 9.23099 8.67501 9.23099 8.46259C9.23099 8.25016 9.15589 8.06893 9.00554 7.91867C8.85542 7.76855 8.67404 7.69336 8.46185 7.69336C8.24934 7.69336 8.06796 7.76855 7.91784 7.91867C7.76772 8.06893 7.69238 8.25016 7.69238 8.46259Z" fill="#EAEAEA"/>
<path d="M9.88579 1.65289C9.80963 1.57676 9.71954 1.53868 9.61535 1.53868H2.39785C2.39379 1.51066 2.38478 1.45962 2.37076 1.38551C2.35674 1.31135 2.34575 1.25229 2.33773 1.20817C2.32967 1.16424 2.31473 1.11111 2.29265 1.04902C2.27061 0.986882 2.24457 0.937754 2.21453 0.901781C2.18454 0.865619 2.14448 0.834656 2.09439 0.808535C2.04433 0.782582 1.98721 0.769531 1.92313 0.769531H0.38469C0.280456 0.769531 0.190324 0.807672 0.114211 0.8837C0.0380775 0.959813 0 1.05001 0 1.15416C0 1.25831 0.0380775 1.34846 0.114211 1.42457C0.190387 1.50071 0.28054 1.53874 0.38469 1.53874H1.61052L2.67416 6.48472C2.6662 6.50072 2.62514 6.57677 2.55098 6.71306C2.47687 6.84935 2.41778 6.96849 2.37375 7.07064C2.32969 7.17291 2.30766 7.25199 2.30766 7.30805C2.30766 7.4122 2.34573 7.50237 2.42182 7.57861C2.49804 7.65451 2.58815 7.69271 2.69232 7.69271H3.07693H8.46156H8.84593C8.95008 7.69271 9.04025 7.65453 9.11635 7.57861C9.19254 7.50239 9.23058 7.41222 9.23058 7.30805C9.23058 7.20388 9.19254 7.1137 9.11635 7.03763C9.04027 6.96156 8.9501 6.92338 8.84593 6.92338H3.31722C3.41342 6.73103 3.46149 6.60297 3.46149 6.53886C3.46149 6.49867 3.45648 6.45458 3.44644 6.40661C3.4364 6.35864 3.42441 6.30547 3.41039 6.24729C3.39635 6.18936 3.38738 6.14627 3.38338 6.1182L9.65758 5.38504C9.75762 5.37294 9.83982 5.33002 9.90391 5.2558C9.96803 5.18175 10 5.09663 10 5.00042V1.92343C9.99996 1.81928 9.96199 1.72913 9.88579 1.65289Z" fill="#EAEAEA"/>
<path d="M2.30762 8.46259C2.30762 8.67501 2.3827 8.85625 2.53297 9.00637C2.68328 9.15663 2.86449 9.23182 3.07689 9.23182C3.28917 9.23182 3.47049 9.15663 3.62069 9.00637C3.77096 8.85625 3.84612 8.67501 3.84612 8.46259C3.84612 8.25016 3.77102 8.06893 3.62069 7.91867C3.47046 7.76855 3.28917 7.69336 3.07689 7.69336C2.86451 7.69336 2.68319 7.76855 2.53297 7.91867C2.38278 8.06893 2.30762 8.25016 2.30762 8.46259Z" fill="#EAEAEA"/>
</svg>
