<svg width="45" height="45" viewBox="0 0 45 45" fill="none" xmlns="http://www.w3.org/2000/svg">
<circle cx="22.5" cy="22.5" r="22.5" fill="#DBDBDB"/>
<path d="M14.6316 25.1037V17.4454C14.6316 17.0198 14.9766 16.6748 15.4021 16.6748H23.0566C23.4821 16.6748 23.8271 17.0198 23.8271 17.4454V25.1037C23.8271 25.2456 23.7121 25.3606 23.5702 25.3606H14.8884C14.7466 25.3606 14.6316 25.2456 14.6316 25.1037ZM20.8128 27.7273C20.8128 28.61 20.0972 29.3255 19.2146 29.3255C18.332 29.3255 17.6164 28.61 17.6164 27.7273C17.6164 26.8446 18.332 26.1291 19.2146 26.1291C20.0972 26.1291 20.8128 26.8446 20.8128 27.7273ZM20.0136 27.7273C20.0136 27.286 19.6559 26.9282 19.2146 26.9282C18.7732 26.9282 18.4154 27.286 18.4154 27.7273C18.4154 28.1686 18.7732 28.5264 19.2146 28.5264C19.6559 28.5264 20.0136 28.1686 20.0136 27.7273ZM17.8381 26.1291H14.2569C14.115 26.1291 14 26.2441 14 26.386V27.1652C14 27.3071 14.115 27.4221 14.2569 27.4221H17.1274C17.2023 26.9078 17.4619 26.4536 17.8381 26.1291ZM29.1746 27.7273C29.1746 28.61 28.4591 29.3255 27.5765 29.3255C26.6938 29.3255 25.9783 28.61 25.9783 27.7273C25.9783 26.8446 26.6938 26.1291 27.5765 26.1291C28.4591 26.1291 29.1746 26.8446 29.1746 27.7273ZM28.3756 27.7273C28.3756 27.286 28.0178 26.9282 27.5765 26.9282C27.1351 26.9282 26.7774 27.286 26.7774 27.7273C26.7774 28.1686 27.1351 28.5264 27.5765 28.5264C28.0178 28.5264 28.3756 28.1686 28.3756 27.7273ZM32 26.386V27.1652C32 27.3071 31.885 27.4221 31.7431 27.4221H29.6636C29.5149 26.402 28.637 25.6154 27.5765 25.6154C26.5159 25.6154 25.6379 26.402 25.4892 27.4221H21.3018C21.2268 26.9079 20.9673 26.4536 20.5911 26.1291H24.5615V18.7823C24.5615 18.4986 24.7915 18.2686 25.0752 18.2686H27.5001C28.1828 18.2686 28.821 18.6077 29.203 19.1736L30.7662 21.4889C30.9955 21.8285 31.1181 22.229 31.1181 22.6387V26.1291H31.7431C31.885 26.1291 32 26.2441 32 26.386ZM29.3944 21.5482L28.1443 19.772C28.0962 19.7036 28.0179 19.6629 27.9343 19.6629H25.9844C25.8426 19.6629 25.7276 19.7779 25.7276 19.9198V21.696C25.7276 21.8379 25.8426 21.9529 25.9844 21.9529H29.1844C29.3924 21.9529 29.5141 21.7184 29.3944 21.5482Z" fill="#7342A2"/>
</svg>
