<svg width="45" height="45" viewBox="0 0 45 45" fill="none" xmlns="http://www.w3.org/2000/svg">
<circle cx="22.5" cy="22.5" r="22.5" fill="#DBDBDB"/>
<g clip-path="url(#clip0)">
<path d="M27.9653 15.6772C27.6203 15.6772 27.3403 15.9572 27.3403 16.3022V16.8231C25.9978 15.6525 24.2856 15 22.4609 15C18.3469 15 15 18.3591 15 22.4875C15 22.8325 15.28 23.1125 15.625 23.1125C15.97 23.1125 16.25 22.8325 16.25 22.4875C16.25 19.0481 19.0362 16.25 22.4609 16.25C23.9631 16.25 25.3744 16.7819 26.4869 17.7372H25.9141C25.5691 17.7372 25.2891 18.0172 25.2891 18.3622C25.2891 18.7072 25.5691 18.9872 25.9141 18.9872H27.9653C28.3103 18.9872 28.5903 18.7072 28.5903 18.3622V16.3022C28.5903 15.9572 28.3103 15.6772 27.9653 15.6772Z" fill="#7342A2"/>
<path d="M29.375 21.8877C29.03 21.8877 28.75 22.1677 28.75 22.5127C28.75 25.9521 25.9637 28.7502 22.539 28.7502C21.0543 28.7502 19.6581 28.2314 18.5518 27.2971H19.1521C19.4971 27.2971 19.7771 27.0171 19.7771 26.6721C19.7771 26.3271 19.4971 26.0471 19.1521 26.0471H17.1006C17.095 26.0471 17.09 26.0486 17.0846 26.0486C17.0609 26.0493 17.0375 26.0524 17.0137 26.0558C16.9962 26.0583 16.9787 26.0599 16.9615 26.0639C16.9409 26.0686 16.9206 26.0761 16.9003 26.083C16.8815 26.0896 16.8625 26.0952 16.8443 26.1033C16.8271 26.1111 16.8109 26.1211 16.7943 26.1305C16.7746 26.1418 16.7553 26.1527 16.7368 26.1658C16.7321 26.1693 16.7268 26.1711 16.7221 26.1749C16.7115 26.183 16.7034 26.193 16.6934 26.2018C16.6768 26.2161 16.6603 26.2305 16.6453 26.2468C16.6312 26.2618 16.619 26.2774 16.6068 26.2933C16.5946 26.3093 16.5828 26.3252 16.5718 26.3421C16.5609 26.3596 16.5515 26.3777 16.5425 26.3958C16.5334 26.4136 16.525 26.4318 16.5178 26.4505C16.5106 26.4699 16.505 26.4893 16.4996 26.5093C16.4946 26.5283 16.4893 26.5474 16.4862 26.5671C16.4825 26.5893 16.4809 26.6114 16.4793 26.6339C16.4784 26.6468 16.4756 26.6593 16.4756 26.6724V28.7324C16.4756 29.0774 16.7556 29.3574 17.1006 29.3574C17.4456 29.3574 17.7256 29.0774 17.7256 28.7324V28.2355C19.0578 29.3696 20.7443 30.0002 22.539 30.0002C26.6531 30.0002 30 26.6411 30 22.5127C30 22.1677 29.72 21.8877 29.375 21.8877Z" fill="#7342A2"/>
</g>
<defs>
<clipPath id="clip0">
<rect x="15" y="15" width="15" height="15" fill="white"/>
</clipPath>
</defs>
</svg>
