<svg width="13" height="13" viewBox="0 0 13 13" fill="none" xmlns="http://www.w3.org/2000/svg">
<g clip-path="url(#clip0)">
<path d="M0.970154 6.68235C0.976252 6.6923 0.983633 6.70128 0.991335 6.70898L6.09981 12.1371C6.13671 12.1763 6.18678 12.1987 6.2423 12.2003H6.24615C6.29846 12.2003 6.34788 12.1804 6.38575 12.1438L11.9641 6.74974C11.9666 6.74782 11.9884 6.72792 12.0016 6.71508C12.0125 6.70481 12.0215 6.69422 12.0234 6.68909C12.6531 6.03697 13 5.1801 13 4.2767C13 2.3595 11.4403 0.799805 9.52279 0.799805C8.26797 0.799805 7.1165 1.47182 6.5 2.55847C5.88383 1.4715 4.73235 0.799805 3.47721 0.799805C1.55969 0.799805 2.22871e-07 2.3595 2.22871e-07 4.2767C-0.000320701 5.17978 0.345957 6.03601 0.970154 6.68235ZM3.47689 1.20128C4.72048 1.20128 5.8344 1.94326 6.31451 3.09185C6.34596 3.16662 6.41849 3.21476 6.49968 3.21476C6.58055 3.21476 6.6534 3.16662 6.68485 3.09153C7.16528 1.94326 8.2792 1.20128 9.52279 1.20128C11.2189 1.20128 12.5988 2.58126 12.5988 4.27702C12.5988 5.08607 12.285 5.85083 11.715 6.43106C11.7096 6.43684 11.7047 6.4423 11.7006 6.44807L6.25257 11.7138L1.31033 6.46412C1.30295 6.45224 1.29429 6.44101 1.28402 6.43074C0.714378 5.85147 0.400835 5.08671 0.400835 4.27702C0.400835 2.58093 1.78081 1.20128 3.47689 1.20128Z" fill="#3F3E3E"/>
</g>
<defs>
<clipPath id="clip0">
<rect width="13" height="13" fill="white"/>
</clipPath>
</defs>
</svg>
