<svg width="6" height="10" viewBox="0 0 6 10" fill="none" xmlns="http://www.w3.org/2000/svg">
<path d="M5.49974 0.00208067L4.20298 0C2.74611 0 1.80462 0.96595 1.80462 2.46101V3.59571H0.500778C0.388111 3.59571 0.296875 3.68705 0.296875 3.79971V5.44375C0.296875 5.55642 0.388215 5.64766 0.500778 5.64766H1.80462V9.79609C1.80462 9.90876 1.89585 10 2.00852 10H3.70966C3.82232 10 3.91356 9.90866 3.91356 9.79609V5.64766H5.43805C5.55072 5.64766 5.64195 5.55642 5.64195 5.44375L5.64258 3.79971C5.64258 3.74562 5.62104 3.69381 5.58286 3.65552C5.54468 3.61724 5.49267 3.59571 5.43857 3.59571H3.91356V2.63381C3.91356 2.17149 4.02373 1.93679 4.62597 1.93679L5.49953 1.93648C5.61209 1.93648 5.70333 1.84514 5.70333 1.73257V0.205986C5.70333 0.093526 5.6122 0.00228873 5.49974 0.00208067Z" fill="#343333"/>
</svg>
