<svg width="10" height="10" viewBox="0 0 10 10" fill="none" xmlns="http://www.w3.org/2000/svg">
<path d="M7.49974 0.00208067L6.20298 0C4.74611 0 3.80462 0.96595 3.80462 2.46101V3.59571H2.50078C2.38811 3.59571 2.29688 3.68705 2.29688 3.79971V5.44375C2.29688 5.55642 2.38822 5.64766 2.50078 5.64766H3.80462V9.79609C3.80462 9.90876 3.89585 10 4.00852 10H5.70966C5.82232 10 5.91356 9.90866 5.91356 9.79609V5.64766H7.43805C7.55072 5.64766 7.64195 5.55642 7.64195 5.44375L7.64258 3.79971C7.64258 3.74562 7.62104 3.69381 7.58286 3.65552C7.54468 3.61724 7.49267 3.59571 7.43857 3.59571H5.91356V2.63381C5.91356 2.17149 6.02373 1.93679 6.62597 1.93679L7.49953 1.93648C7.61209 1.93648 7.70333 1.84514 7.70333 1.73257V0.205986C7.70333 0.093526 7.6122 0.00228873 7.49974 0.00208067Z" fill="#DFDADA"/>
</svg>
