<svg width="10" height="10" viewBox="0 0 10 10" fill="none" xmlns="http://www.w3.org/2000/svg">
<path d="M1.46484 10H8.53516C9.34288 10 10 9.34288 10 8.53516V1.46484C10 0.65712 9.34288 0 8.53516 0H1.46484C0.65712 0 0 0.65712 0 1.46484V8.53516C0 9.34288 0.65712 10 1.46484 10ZM0.585938 1.46484C0.585938 0.980225 0.980225 0.585938 1.46484 0.585938H8.53516C9.01978 0.585938 9.41406 0.980225 9.41406 1.46484V8.53516C9.41406 9.01978 9.01978 9.41406 8.53516 9.41406H1.46484C0.980225 9.41406 0.585938 9.01978 0.585938 8.53516V1.46484Z" fill="#343333"/>
<path d="M5 7.63672C6.45386 7.63672 7.63672 6.45386 7.63672 5C7.63672 3.54614 6.45386 2.36328 5 2.36328C3.54614 2.36328 2.36328 3.54614 2.36328 5C2.36328 6.45386 3.54614 7.63672 5 7.63672ZM5 2.94922C6.13083 2.94922 7.05078 3.86917 7.05078 5C7.05078 6.13083 6.13083 7.05078 5 7.05078C3.86917 7.05078 2.94922 6.13083 2.94922 5C2.94922 3.86917 3.86917 2.94922 5 2.94922Z" fill="#343333"/>
<path d="M7.92969 2.94922C8.41431 2.94922 8.80859 2.55493 8.80859 2.07031C8.80859 1.58569 8.41431 1.19141 7.92969 1.19141C7.44507 1.19141 7.05078 1.58569 7.05078 2.07031C7.05078 2.55493 7.44507 2.94922 7.92969 2.94922ZM7.92969 1.77734C8.0912 1.77734 8.22266 1.9088 8.22266 2.07031C8.22266 2.23183 8.0912 2.36328 7.92969 2.36328C7.76817 2.36328 7.63672 2.23183 7.63672 2.07031C7.63672 1.9088 7.76817 1.77734 7.92969 1.77734Z" fill="#343333"/>
</svg>
