<svg width="20" height="20" viewBox="0 0 20 20" fill="none" xmlns="http://www.w3.org/2000/svg">
<path d="M19.9967 2.31667C19.995 2.28329 19.9884 2.25037 19.977 2.219C19.9747 2.21267 19.974 2.206 19.9713 2.19967L19.9693 2.19367C19.9538 2.16087 19.9328 2.13092 19.9073 2.105C19.9007 2.098 19.893 2.09267 19.8857 2.08633C19.8637 2.06679 19.8391 2.05029 19.8127 2.03733C19.8028 2.03212 19.7927 2.02746 19.7823 2.02333C19.7455 2.00867 19.7063 2.00075 19.6667 2H0.333333C0.293708 2.00075 0.2545 2.00867 0.217667 2.02333C0.207333 2.02746 0.197208 2.03212 0.187333 2.03733C0.160917 2.05029 0.136333 2.06679 0.114333 2.08633C0.107 2.09267 0.0993333 2.098 0.0926667 2.105C0.0672083 2.13092 0.04625 2.16087 0.0306667 2.19367L0.0286667 2.2C0.026 2.20633 0.0253333 2.213 0.023 2.21933C0.0115833 2.25071 0.00495833 2.28363 0.00333333 2.317C0.00333333 2.323 0 2.32767 0 2.33367V17.6667C0 17.6727 0.003 17.6773 0.00333333 17.6833C0.00495833 17.7167 0.0115833 17.7496 0.023 17.781C0.0253333 17.7873 0.026 17.794 0.0286667 17.8003L0.0306667 17.8063C0.04625 17.8391 0.0672083 17.8691 0.0926667 17.895C0.0993333 17.902 0.107 17.9073 0.114333 17.9137C0.136333 17.9332 0.160875 17.9497 0.187333 17.9627C0.197208 17.9679 0.207292 17.9725 0.217667 17.9767C0.2545 17.9913 0.293708 17.9992 0.333333 18H19.6667C19.7063 17.9992 19.7455 17.9913 19.7823 17.9767C19.7927 17.9725 19.8028 17.9679 19.8127 17.9627C19.8391 17.9497 19.8637 17.9332 19.8857 17.9137C19.893 17.9073 19.9007 17.902 19.9073 17.895C19.9328 17.8691 19.9538 17.8391 19.9693 17.8063L19.9713 17.8003C19.974 17.794 19.9747 17.7873 19.977 17.781C19.9884 17.7496 19.995 17.7167 19.9967 17.6833C19.9967 17.6773 20 17.6727 20 17.6667V2.33333C20 2.32733 19.997 2.32267 19.9967 2.31667ZM18.9443 2.66667L10 13.153L1.05567 2.66667H18.9443ZM0.666667 3.23767L6.435 10L0.666667 16.7623V3.23767ZM1.05567 17.3333L6.873 10.514L9.74633 13.883C9.86575 14.0231 10.0762 14.0398 10.2163 13.9204C10.2297 13.909 10.2422 13.8965 10.2537 13.883L13.127 10.514L18.9443 17.3333H1.05567ZM19.3333 16.7623L13.5667 10L19.3333 3.23767V16.7623Z" fill="#6D3E9A"/>
</svg>
