<svg width="12" height="10" viewBox="0 0 12 10" fill="none" xmlns="http://www.w3.org/2000/svg">
<path d="M11.998 0.390195C11.997 0.37017 11.9931 0.35042 11.9862 0.331595C11.9848 0.327795 11.9844 0.323795 11.9828 0.319995L11.9816 0.316395C11.9722 0.29672 11.9597 0.278745 11.9444 0.263195C11.9404 0.258995 11.9358 0.255795 11.9314 0.251995C11.9182 0.24027 11.9035 0.23037 11.8876 0.222595C11.8817 0.21947 11.8756 0.21667 11.8694 0.214195C11.8473 0.205395 11.8238 0.200645 11.8 0.200195H0.2C0.176225 0.200645 0.1527 0.205395 0.1306 0.214195C0.1244 0.21667 0.118325 0.21947 0.1124 0.222595C0.09655 0.23037 0.0818 0.24027 0.0686 0.251995C0.0642 0.255795 0.0596 0.258995 0.0556 0.263195C0.040325 0.278745 0.02775 0.29672 0.0184 0.316395L0.0172 0.320195C0.0156 0.323995 0.0152 0.327995 0.0138 0.331795C0.00695 0.35062 0.002975 0.37037 0.002 0.390395C0.002 0.393995 0 0.396795 0 0.400395V9.60019C0 9.60379 0.0018 9.60659 0.002 9.61019C0.002975 9.63022 0.00695 9.64997 0.0138 9.66879C0.0152 9.67259 0.0156 9.67659 0.0172 9.68039L0.0184 9.68399C0.02775 9.70367 0.040325 9.72164 0.0556 9.73719C0.0596 9.74139 0.0642 9.74459 0.0686 9.74839C0.0818 9.76012 0.096525 9.77002 0.1124 9.77779C0.118325 9.78092 0.124375 9.78372 0.1306 9.78619C0.1527 9.79499 0.176225 9.79974 0.2 9.80019H11.8C11.8238 9.79974 11.8473 9.79499 11.8694 9.78619C11.8756 9.78372 11.8817 9.78092 11.8876 9.77779C11.9035 9.77002 11.9182 9.76012 11.9314 9.74839C11.9358 9.74459 11.9404 9.74139 11.9444 9.73719C11.9597 9.72164 11.9722 9.70367 11.9816 9.68399L11.9828 9.68039C11.9844 9.67659 11.9848 9.67259 11.9862 9.66879C11.9931 9.64997 11.997 9.63022 11.998 9.61019C11.998 9.60659 12 9.60379 12 9.60019V0.400195C12 0.396595 11.9982 0.393795 11.998 0.390195ZM11.3666 0.600195L6 6.89199L0.6334 0.600195H11.3666ZM0.4 0.942795L3.861 5.00019L0.4 9.05759V0.942795ZM0.6334 9.40019L4.1238 5.30859L5.8478 7.32999C5.91945 7.41404 6.0457 7.42409 6.12975 7.35244C6.13783 7.34557 6.14533 7.33807 6.1522 7.32999L7.8762 5.30859L11.3666 9.40019H0.6334ZM11.6 9.05759L8.14 5.00019L11.6 0.942795V9.05759Z" fill="#232323"/>
</svg>
