<svg width="14" height="12" viewBox="0 0 14 12" fill="none" xmlns="http://www.w3.org/2000/svg">
<path d="M13.9977 0.622057C13.9965 0.598695 13.9919 0.575653 13.9839 0.553691C13.9823 0.549257 13.9818 0.544591 13.9799 0.540157L13.9785 0.535957C13.9676 0.513003 13.953 0.492032 13.9351 0.473891C13.9305 0.468991 13.9251 0.465257 13.92 0.460824C13.9046 0.447145 13.8874 0.435595 13.8689 0.426524C13.862 0.422878 13.8549 0.419611 13.8476 0.416724C13.8218 0.406457 13.7944 0.400916 13.7667 0.400391H0.233333C0.205596 0.400916 0.17815 0.406457 0.152367 0.416724C0.145133 0.419611 0.138046 0.422878 0.131133 0.426524C0.112642 0.435595 0.0954333 0.447145 0.0800333 0.460824C0.0749 0.465257 0.0695333 0.468991 0.0648667 0.473891C0.0470458 0.492032 0.032375 0.513003 0.0214667 0.535957L0.0200667 0.540391C0.0182 0.544824 0.0177333 0.549491 0.0161 0.553924C0.00810833 0.575886 0.00347083 0.598928 0.00233333 0.622291C0.00233333 0.626491 0 0.629757 0 0.633957V11.3671C0 11.3713 0.0021 11.3745 0.00233333 11.3787C0.00347083 11.4021 0.00810833 11.4251 0.0161 11.4471C0.0177333 11.4515 0.0182 11.4562 0.0200667 11.4606L0.0214667 11.4648C0.032375 11.4878 0.0470458 11.5087 0.0648667 11.5269C0.0695333 11.5318 0.0749 11.5355 0.0800333 11.54C0.0954333 11.5536 0.112612 11.5652 0.131133 11.5743C0.138046 11.5779 0.145104 11.5812 0.152367 11.5841C0.17815 11.5943 0.205596 11.5999 0.233333 11.6004H13.7667C13.7944 11.5999 13.8218 11.5943 13.8476 11.5841C13.8549 11.5812 13.862 11.5779 13.8689 11.5743C13.8874 11.5652 13.9046 11.5536 13.92 11.54C13.9251 11.5355 13.9305 11.5318 13.9351 11.5269C13.953 11.5087 13.9676 11.4878 13.9785 11.4648L13.9799 11.4606C13.9818 11.4562 13.9823 11.4515 13.9839 11.4471C13.9919 11.4251 13.9965 11.4021 13.9977 11.3787C13.9977 11.3745 14 11.3713 14 11.3671V0.633724C14 0.629524 13.9979 0.626257 13.9977 0.622057ZM13.261 0.867057L7 8.20749L0.738967 0.867057H13.261ZM0.466667 1.26676L4.5045 6.00039L0.466667 10.734V1.26676ZM0.738967 11.1337L4.8111 6.36019L6.82243 8.71849C6.90602 8.81655 7.05332 8.82827 7.15138 8.74468C7.1608 8.73666 7.16955 8.72791 7.17757 8.71849L9.1889 6.36019L13.261 11.1337H0.738967ZM13.5333 10.734L9.49667 6.00039L13.5333 1.26676V10.734Z" fill="#B7B5B5"/>
</svg>
