<svg width="20" height="16" viewBox="0 0 20 16" fill="none" xmlns="http://www.w3.org/2000/svg">
<path d="M19.9967 0.316667C19.995 0.283292 19.9884 0.250375 19.977 0.219C19.9747 0.212667 19.974 0.206 19.9713 0.199667L19.9693 0.193667C19.9538 0.160875 19.9328 0.130917 19.9073 0.105C19.9007 0.098 19.893 0.0926666 19.8857 0.0863333C19.8637 0.0667916 19.8391 0.0502916 19.8127 0.0373333C19.8028 0.032125 19.7927 0.0274584 19.7823 0.0233334C19.7455 0.00866672 19.7063 0.00075 19.6667 0H0.333333C0.293708 0.00075 0.2545 0.00866672 0.217667 0.0233334C0.207333 0.0274584 0.197208 0.032125 0.187333 0.0373333C0.160917 0.0502916 0.136333 0.0667916 0.114333 0.0863333C0.107 0.0926666 0.0993333 0.098 0.0926667 0.105C0.0672083 0.130917 0.04625 0.160875 0.0306667 0.193667L0.0286667 0.2C0.026 0.206333 0.0253333 0.213 0.023 0.219333C0.0115833 0.250708 0.00495833 0.283625 0.00333333 0.317C0.00333333 0.323 0 0.327667 0 0.333667V15.6667C0 15.6727 0.003 15.6773 0.00333333 15.6833C0.00495833 15.7167 0.0115833 15.7496 0.023 15.781C0.0253333 15.7873 0.026 15.794 0.0286667 15.8003L0.0306667 15.8063C0.04625 15.8391 0.0672083 15.8691 0.0926667 15.895C0.0993333 15.902 0.107 15.9073 0.114333 15.9137C0.136333 15.9332 0.160875 15.9497 0.187333 15.9627C0.197208 15.9679 0.207292 15.9725 0.217667 15.9767C0.2545 15.9913 0.293708 15.9992 0.333333 16H19.6667C19.7063 15.9992 19.7455 15.9913 19.7823 15.9767C19.7927 15.9725 19.8028 15.9679 19.8127 15.9627C19.8391 15.9497 19.8637 15.9332 19.8857 15.9137C19.893 15.9073 19.9007 15.902 19.9073 15.895C19.9328 15.8691 19.9538 15.8391 19.9693 15.8063L19.9713 15.8003C19.974 15.794 19.9747 15.7873 19.977 15.781C19.9884 15.7496 19.995 15.7167 19.9967 15.6833C19.9967 15.6773 20 15.6727 20 15.6667V0.333333C20 0.327333 19.997 0.322667 19.9967 0.316667ZM18.9443 0.666667L10 11.153L1.05567 0.666667H18.9443ZM0.666667 1.23767L6.435 8L0.666667 14.7623V1.23767ZM1.05567 15.3333L6.873 8.514L9.74633 11.883C9.86575 12.0231 10.0762 12.0398 10.2163 11.9204C10.2297 11.909 10.2422 11.8965 10.2537 11.883L13.127 8.514L18.9443 15.3333H1.05567ZM19.3333 14.7623L13.5667 8L19.3333 1.23767V14.7623Z" fill="#6D3E9A"/>
</svg>
