<svg width="45" height="45" viewBox="0 0 45 45" fill="none" xmlns="http://www.w3.org/2000/svg">
<circle cx="22.5" cy="22.5" r="22.5" fill="#DBDBDB"/>
<g clip-path="url(#clip0)">
<path d="M27.8583 17.957H16.8643C16.8255 18.7831 16.6874 19.3065 16.4265 19.666C16.1561 20.0385 15.7609 20.2281 15.1348 20.2743V23.5499C15.7609 23.5952 16.1574 23.7924 16.4258 24.1593C16.6874 24.517 16.8256 25.0201 16.8643 25.8875H27.8373C27.9356 24.4005 28.5956 23.6469 29.9261 23.5499V20.2744C29.3 20.2284 28.8217 20.0392 28.486 19.6923C28.116 19.3093 27.9093 18.7418 27.8583 17.957ZM22.4427 25.3763C20.6301 25.3763 19.1608 23.8253 19.1608 21.9121C19.1608 19.9989 20.6301 18.4478 22.4427 18.4478C24.2552 18.4478 25.7246 19.9989 25.7246 21.9121C25.7226 23.8245 24.2543 25.3742 22.4425 25.3763H22.4427Z" fill="#7342A2"/>
<path d="M25.2546 21.9119C25.2546 23.5515 23.9955 24.8805 22.4422 24.8805C20.8891 24.8805 19.6299 23.5515 19.6299 21.9119C19.6299 20.2725 20.8891 18.9434 22.4422 18.9434C23.9955 18.9434 25.2546 20.2725 25.2546 21.9119Z" fill="#7342A2"/>
<path d="M31.374 27.3247C31.37 27.4651 31.2624 27.5775 31.1292 27.5803H15.0957V28.2411H32.0001V17.915H31.374V27.3247Z" fill="#7342A2"/>
<path d="M30.9043 16.7588H14V27.0849H30.9043V16.7588ZM30.3957 23.787C30.3957 23.9232 30.2931 24.0345 30.1642 24.0382C28.8732 24.0603 28.3317 24.67 28.2961 26.1342C28.2933 26.2701 28.1898 26.3795 28.0613 26.3827H16.6379C16.5088 26.3796 16.4045 26.2706 16.4006 26.1342C16.3584 24.3788 15.9691 24.053 14.9018 24.0348C14.7725 24.033 14.668 23.9235 14.6654 23.787V20.0365C14.668 19.9003 14.7727 19.7909 14.9018 19.7895C15.499 19.7793 15.8491 19.6522 16.0592 19.3626C16.2766 19.0634 16.3827 18.5515 16.4035 17.6994C16.407 17.5657 16.5114 17.4595 16.6382 17.4611H28.0827C28.2094 17.4597 28.3138 17.5657 28.3175 17.6994C28.3363 18.4753 28.499 19.0081 28.8148 19.3348C29.1039 19.6338 29.5329 19.778 30.1644 19.7887C30.2926 19.7909 30.3957 19.9011 30.3958 20.0365L30.3957 23.787Z" fill="#7342A2"/>
</g>
<defs>
<clipPath id="clip0">
<rect x="14" y="13" width="18" height="19" fill="white"/>
</clipPath>
</defs>
</svg>
