<svg width="17" height="17" viewBox="0 0 17 17" fill="none" xmlns="http://www.w3.org/2000/svg">
<path d="M16.9628 13.1719C16.9147 13.027 16.6088 12.8136 16.0453 12.5321C15.8926 12.4434 15.6751 12.3228 15.3936 12.1699C15.1119 12.0169 14.8562 11.876 14.6269 11.7471C14.3972 11.6184 14.182 11.4936 13.9809 11.3731C13.9488 11.3489 13.8482 11.2786 13.6791 11.1616C13.5099 11.045 13.3673 10.9584 13.2503 10.902C13.1337 10.8458 13.0189 10.8176 12.9062 10.8176C12.7452 10.8176 12.5442 10.9324 12.3028 11.1616C12.0614 11.3912 11.84 11.6405 11.6389 11.9104C11.4377 12.1801 11.2244 12.4295 10.9992 12.6589C10.7737 12.8884 10.5885 13.003 10.4438 13.003C10.3711 13.003 10.2805 12.9828 10.172 12.9428C10.0635 12.9026 9.98091 12.8681 9.92424 12.8404C9.86808 12.812 9.7717 12.7558 9.63477 12.671C9.49759 12.5865 9.4213 12.5402 9.40523 12.5321C8.30255 11.9202 7.35685 11.2199 6.56795 10.4314C5.77931 9.64235 5.07892 8.69673 4.46721 7.59392C4.45918 7.57781 4.41279 7.50131 4.32834 7.36455C4.24376 7.22766 4.18739 7.1312 4.15923 7.0747C4.13106 7.01841 4.09685 6.93587 4.05668 6.82723C4.0165 6.71859 3.99633 6.62809 3.99633 6.55556C3.99633 6.41077 4.11106 6.22554 4.34048 6.00014C4.56985 5.77487 4.81944 5.56148 5.08899 5.3604C5.35875 5.15931 5.60808 4.93789 5.83754 4.69651C6.06691 4.45499 6.1816 4.25387 6.1816 4.09292C6.1816 3.9803 6.15344 3.86549 6.09715 3.74881C6.04082 3.63189 5.9543 3.4892 5.83754 3.32009C5.72074 3.15106 5.65033 3.05054 5.62614 3.01819C5.50553 2.81711 5.38091 2.60182 5.25197 2.3724C5.12303 2.14303 4.98229 1.88735 4.82929 1.60566C4.67642 1.3241 4.55577 1.1067 4.46713 0.953781C4.18557 0.390452 3.97231 0.0844507 3.82739 0.0363261C3.77101 0.0121792 3.68644 0 3.57386 0C3.35642 0 3.07274 0.0401743 2.72263 0.120777C2.3724 0.201252 2.0968 0.285661 1.89555 0.37434C1.49309 0.543284 1.06652 1.03426 0.615724 1.84709C0.205227 2.60355 0 3.35227 0 4.09271C0 4.30986 0.0140822 4.52113 0.0422465 4.72657C0.0704108 4.9318 0.120734 5.16325 0.19326 5.42087C0.265658 5.67841 0.324059 5.86972 0.368208 5.99431C0.4124 6.11897 0.494905 6.3423 0.615682 6.66437C0.736289 6.98636 0.808815 7.18347 0.832962 7.25591C1.11465 8.04476 1.44869 8.749 1.83499 9.36882C2.47059 10.3991 3.33798 11.4638 4.43664 12.5625C5.53534 13.6612 6.59984 14.5285 7.63016 15.1644C8.2499 15.5506 8.95439 15.8846 9.74312 16.1665C9.8156 16.1906 10.0127 16.2629 10.3346 16.3839C10.6566 16.5046 10.88 16.5871 11.0046 16.6314C11.1293 16.6757 11.3207 16.7342 11.578 16.8067C11.8359 16.8792 12.0671 16.9295 12.2724 16.9579C12.4777 16.9857 12.689 17 12.9062 17C13.6466 17 14.3954 16.7947 15.152 16.3842C15.9647 15.9336 16.4556 15.507 16.6246 15.1042C16.7135 14.9032 16.7977 14.6275 16.8782 14.2772C16.9589 13.9272 16.999 13.6435 16.999 13.4261C16.9992 13.3131 16.9871 13.2287 16.9628 13.1719Z" fill="#282828"/>
</svg>
