<svg width="63" height="66" viewBox="0 0 63 66" fill="none" xmlns="http://www.w3.org/2000/svg">
<rect x="14.6777" y="-19" width="100" height="20" transform="rotate(45 14.6777 -19)" fill="#64378F"/>
<path d="M33.3238 14.7895L31.6819 13.1476L30.0018 13.9367L29.4799 13.4149L35.6911 10.5765L35.933 10.8184L33.101 17.036L32.5473 16.4823L33.3238 14.7895ZM32.3119 12.8612L33.6229 14.1722L34.482 12.3203L34.9975 11.4866L34.9911 11.4802L34.1447 12.0084L32.3119 12.8612ZM36.9 16.7112L36.6009 16.412L34.539 18.474L34.0108 17.9458L38.4656 13.491L38.9938 14.0192L36.9191 16.0939L37.2946 16.2911L40.7757 15.8011L41.3866 16.412L37.9819 16.8384L37.5046 16.7812L37.5746 17.3603L37.1292 21.0641L36.4609 20.3959L36.9 16.7112ZM41.0452 26.6221L40.6825 26.2593L41.408 25.3429L38.2133 22.1482L42.668 17.6934L43.1962 18.2217L39.2124 22.2055L41.2171 24.2101L45.2009 20.2263L45.7291 20.7545L41.7453 24.7383L42.3371 25.3302L41.0452 26.6221ZM47.4762 22.5016L48.0044 23.0298L43.5496 27.4845L43.0214 26.9563L47.4762 22.5016ZM47.6099 31.5449L47.0817 31.0166L49.0227 29.0756L48.2272 28.5602L45.3189 29.2538L44.6952 28.6302L47.2726 28.0383L47.9345 28.1529C47.8157 27.9662 47.7245 27.7731 47.6608 27.5737C47.6057 27.3743 47.5823 27.1728 47.5908 26.9692C47.6078 26.7655 47.6608 26.564 47.7499 26.3646C47.8432 26.1694 47.9833 25.9785 48.1699 25.7918C48.4287 25.533 48.6854 25.3612 48.94 25.2764C49.203 25.1915 49.4597 25.1724 49.71 25.2191C49.9688 25.2657 50.2191 25.3676 50.461 25.5245C50.7113 25.6815 50.9489 25.8724 51.1737 26.0973C51.318 26.2416 51.4643 26.4007 51.6128 26.5746C51.7656 26.7528 51.9013 26.9395 52.0201 27.1346L47.6099 31.5449ZM50.6901 26.5301C50.55 26.39 50.4016 26.2712 50.2446 26.1737C50.0918 26.0718 49.9306 26.004 49.7609 25.97C49.5955 25.9403 49.4257 25.9531 49.2518 26.0082C49.0779 26.0634 48.9039 26.1779 48.73 26.3519C48.5687 26.5131 48.4584 26.6785 48.399 26.8482C48.3439 27.0222 48.3269 27.1961 48.3481 27.3701C48.3736 27.5398 48.433 27.7053 48.5263 27.8665C48.6239 28.0319 48.7469 28.1889 48.8954 28.3374L49.3282 28.7702L51.091 27.0073C51.0443 26.9352 50.9913 26.8652 50.9319 26.7973C50.8767 26.7252 50.7961 26.6361 50.6901 26.5301Z" fill="white"/>
</svg>
