<svg width="15" height="15" viewBox="0 0 15 15" fill="none" xmlns="http://www.w3.org/2000/svg">
<path d="M14.8699 14.235L11.2247 10.5898C12.2025 9.46563 12.7945 7.99889 12.7945 6.39579C12.7945 2.86696 9.92421 0 6.39871 0C2.86989 0 0.00292969 2.87029 0.00292969 6.39579C0.00292969 9.92129 2.87322 12.7916 6.39871 12.7916C8.00182 12.7916 9.46856 12.1996 10.5927 11.2217L14.238 14.867C14.3244 14.9534 14.4408 15 14.5539 15C14.667 15 14.7834 14.9568 14.8699 14.867C15.0428 14.694 15.0428 14.408 14.8699 14.235ZM0.897608 6.39579C0.897608 3.36253 3.36546 0.898004 6.39539 0.898004C9.42865 0.898004 11.8932 3.36585 11.8932 6.39579C11.8932 9.42572 9.42865 11.8969 6.39539 11.8969C3.36546 11.8969 0.897608 9.42905 0.897608 6.39579Z" fill="#7342A2"/>
</svg>
