<svg width="15" height="15" viewBox="0 0 15 15" fill="none" xmlns="http://www.w3.org/2000/svg">
<path d="M3.0304 14.6458C2.97482 14.6458 2.91924 14.6286 2.87252 14.5945C2.78983 14.5343 2.74848 14.4326 2.76593 14.3319L3.59585 9.49415L0.0809813 6.06843C0.0079507 5.99701 -0.0183618 5.89042 0.0130521 5.79349C0.0447345 5.69629 0.128773 5.62541 0.229996 5.61064L5.08707 4.90477L7.25946 0.503336C7.30457 0.41151 7.398 0.353516 7.50003 0.353516C7.60233 0.353516 7.69577 0.41151 7.7406 0.503336L9.91273 4.90477L14.7701 5.61064C14.8713 5.62541 14.9551 5.69603 14.987 5.79349C15.0184 5.89042 14.9924 5.99728 14.9191 6.06843L11.4042 9.49469L12.2339 14.3322C12.251 14.4328 12.2097 14.5346 12.1273 14.5947C12.0446 14.6554 11.9348 14.6632 11.8443 14.6152L7.50003 12.3313L3.15525 14.6152C3.11605 14.6356 3.07309 14.6458 3.0304 14.6458ZM0.845386 6.06359L4.07162 9.20847C4.13472 9.26996 4.16371 9.3591 4.14868 9.44609L3.38696 13.8865L7.37518 11.7901C7.45331 11.7487 7.54648 11.7487 7.62515 11.7901L11.6128 13.8865L10.8514 9.44609C10.8363 9.3591 10.8653 9.27023 10.9284 9.20847L14.1547 6.06359L9.69632 5.41572C9.60879 5.4031 9.53334 5.34806 9.49414 5.26885L7.50003 1.22908L5.50592 5.26912C5.46672 5.34832 5.39127 5.40337 5.30374 5.41599L0.845386 6.06359Z" fill="#F3CC40"/>
</svg>
