<svg width="15" height="15" viewBox="0 0 15 15" fill="none" xmlns="http://www.w3.org/2000/svg">
<path d="M14.9868 5.79322C14.9551 5.69602 14.8711 5.62514 14.7698 5.61038L9.91277 4.9045L7.74065 0.503336C7.69554 0.411511 7.60211 0.353516 7.50008 0.353516C7.39805 0.353516 7.30434 0.411511 7.25951 0.503336L5.08711 4.90477L0.230041 5.61064C0.128819 5.62541 0.0450485 5.69603 0.0130976 5.79349C-0.0183163 5.89042 0.00772767 5.99728 0.0810268 6.06843L3.59589 9.49442L2.76598 14.3322C2.74879 14.4328 2.79014 14.5346 2.87257 14.5947C2.95553 14.6554 3.06535 14.6632 3.15529 14.6152L7.50008 12.3313L11.8443 14.6152C11.8835 14.6358 11.9268 14.646 11.9694 14.646C12.025 14.646 12.0803 14.6288 12.1273 14.5947C12.21 14.5346 12.2514 14.4328 12.2339 14.3322L11.4043 9.49469L14.9191 6.06843C14.9922 5.99674 15.0185 5.89015 14.9868 5.79322Z" fill="#F3CC40"/>
</svg>
