<svg width="12" height="12" viewBox="0 0 12 12" fill="none" xmlns="http://www.w3.org/2000/svg">
<path d="M6 0C2.6916 0 0 2.6916 0 6C0 9.3084 2.6916 12 6 12C9.3084 12 12 9.3084 12 6C12 2.6916 9.3084 0 6 0ZM6 11.6C2.9122 11.6 0.4 9.0878 0.4 6C0.4 2.9122 2.9122 0.4 6 0.4C9.0878 0.4 11.6 2.9122 11.6 6C11.6 9.0878 9.0878 11.6 6 11.6Z" fill="#232323"/>
<path d="M6.0001 1.2002C5.8897 1.2002 5.8001 1.2896 5.8001 1.4002V6.00019H2.8001C2.6897 6.00019 2.6001 6.08959 2.6001 6.20019C2.6001 6.31079 2.6897 6.40019 2.8001 6.40019H6.0001C6.1105 6.40019 6.2001 6.31079 6.2001 6.20019V1.4002C6.2001 1.2896 6.1105 1.2002 6.0001 1.2002Z" fill="#232323"/>
</svg>
