<svg width="20" height="18" viewBox="0 0 20 18" fill="none" xmlns="http://www.w3.org/2000/svg">
<path d="M1.49255 9.28053C1.50193 9.29584 1.51328 9.30966 1.52513 9.32151L9.38432 17.6725C9.4411 17.7327 9.51812 17.7673 9.60354 17.7697H9.60946C9.68994 17.7697 9.76597 17.7391 9.82423 17.6828L18.4062 9.38422C18.4102 9.38126 18.4438 9.35064 18.464 9.33089C18.4808 9.31509 18.4946 9.2988 18.4976 9.2909C19.4663 8.28764 20 6.96939 20 5.57954C20 2.62999 17.6005 0.230469 14.6504 0.230469C12.72 0.230469 10.9485 1.26434 10 2.93611C9.05204 1.26384 7.28054 0.230469 5.34956 0.230469C2.39953 0.230469 3.42878e-07 2.62999 3.42878e-07 5.57954C-0.000493387 6.96889 0.532241 8.28616 1.49255 9.28053ZM5.34907 0.848125C7.26227 0.848125 8.97601 1.98963 9.71463 3.75669C9.76301 3.87173 9.87459 3.94578 9.99951 3.94578C10.1239 3.94578 10.236 3.87173 10.2844 3.75619C11.0235 1.98963 12.7372 0.848125 14.6504 0.848125C17.2598 0.848125 19.3828 2.97116 19.3828 5.58003C19.3828 6.82472 18.9 8.00128 18.0231 8.89394C18.0147 8.90283 18.0073 8.91122 18.0009 8.92011L9.61933 17.0212L2.0159 8.9448C2.00454 8.92653 1.99121 8.90925 1.97541 8.89345C1.09904 8.00227 0.616669 6.82571 0.616669 5.58003C0.616669 2.97067 2.73971 0.848125 5.34907 0.848125Z" fill="#7342A2"/>
</svg>
