<svg width="75" height="75" viewBox="0 0 75 75" fill="none" xmlns="http://www.w3.org/2000/svg">
<path d="M61.7263 5.45508H50.6808L51.426 9.13352C51.5177 9.59017 51.5132 10.0487 51.4652 10.4998H59.3615V69.9562H15.6331V10.4998H23.5317C23.4837 10.0462 23.4814 9.5877 23.5729 9.12859L24.3183 5.45508H13.2709C11.9653 5.45508 10.9087 6.58458 10.9087 7.97718V72.4784C10.9087 73.8689 11.9653 75.0005 13.2709 75.0005H61.7263C63.0319 75.0005 64.0905 73.8684 64.0905 72.4784V7.97734C64.0907 6.58458 63.0319 5.45508 61.7263 5.45508Z" fill="#64378F"/>
<path d="M54.9065 23.6172H37.6563C36.2592 23.6172 35.1307 24.7482 35.1307 26.1404C35.1307 27.5356 36.2594 28.6659 37.6563 28.6659H54.9065C56.3035 28.6659 57.4318 27.5356 57.4318 26.1404C57.4322 24.7482 56.3035 23.6172 54.9065 23.6172Z" fill="#64378F"/>
<path d="M54.9065 39.1074H37.6563C36.2592 39.1074 35.1307 40.2382 35.1307 41.6328C35.1307 43.0258 36.2594 44.1586 37.6563 44.1586H54.9065C56.3035 44.1586 57.4318 43.0252 57.4318 41.6328C57.4322 40.2382 56.3035 39.1074 54.9065 39.1074Z" fill="#64378F"/>
<path d="M18.4617 24.2119C17.3965 25.1106 17.2594 26.7038 18.1583 27.7708L21.8419 32.1362C22.3233 32.7074 23.0291 33.0327 23.7716 33.0327C23.833 33.0327 23.8939 33.0302 23.9573 33.0254C24.7632 32.9669 25.4936 32.5223 25.9189 31.8334L32.5457 21.1048C33.2786 19.9177 32.9124 18.3639 31.7254 17.6316C30.5382 16.894 28.9845 17.2649 28.2514 18.4521L23.4542 26.2152L22.018 24.5147C21.1188 23.4477 19.5289 23.3107 18.4617 24.2119Z" fill="#64378F"/>
<path d="M24.5089 37.8477C22.4159 37.8477 20.7202 39.5429 20.7202 41.6336C20.7202 43.7249 22.4157 45.4199 24.5089 45.4199C26.6002 45.4199 28.2953 43.7249 28.2953 41.6336C28.2953 39.5426 26.6002 37.8477 24.5089 37.8477Z" fill="#64378F"/>
<path d="M54.9065 54.2559H37.6563C36.2592 54.2559 35.1307 55.3845 35.1307 56.7819C35.1307 58.1743 36.2594 59.3051 37.6563 59.3051H54.9065C56.3035 59.3051 57.4318 58.1743 57.4318 56.7819C57.4322 55.3844 56.3035 54.2559 54.9065 54.2559Z" fill="#64378F"/>
<path d="M24.5089 52.9961C22.4159 52.9961 20.7202 54.6912 20.7202 56.7825C20.7202 58.8731 22.4157 60.569 24.5089 60.569C26.6002 60.569 28.2953 58.8736 28.2953 56.7825C28.2953 54.6912 26.6002 52.9961 24.5089 52.9961Z" fill="#64378F"/>
<path d="M26.7859 11.6761H48.2085C48.7337 11.6761 49.2297 11.4412 49.559 11.0313C49.889 10.6253 50.0163 10.0885 49.9032 9.57509L48.1302 1.368C47.9569 0.569345 47.2512 0 46.435 0H28.5617C27.7462 0 27.0403 0.569499 26.8666 1.368L25.0908 9.57509C24.9835 10.0884 25.1101 10.6253 25.4378 11.0313C25.7675 11.4414 26.2635 11.6761 26.7859 11.6761Z" fill="#64378F"/>
</svg>
