<svg width="75" height="75" viewBox="0 0 75 75" fill="none" xmlns="http://www.w3.org/2000/svg">
<g clip-path="url(#clip0)">
<path d="M74.9965 35.9684C74.964 35.471 74.7259 35.0095 74.3394 34.6948L61.6245 24.5125V4.51496C61.589 3.48833 60.7536 2.67041 59.7265 2.65625H50.287C49.2849 2.65625 48.558 3.51265 48.558 4.51496V14.0807L38.6629 6.21651C37.9925 5.6875 37.0466 5.6875 36.3762 6.21651L0.688652 34.6948C-0.0966094 35.3158 -0.229634 36.4559 0.391389 37.2411C0.416251 37.2727 0.442203 37.3034 0.469243 37.3332L7.58759 45.1731C8.2244 45.8827 9.30529 45.9689 10.0465 45.3693L11.7177 44.0154V70.4856C11.7315 71.5036 12.5511 72.3264 13.5688 72.3444H61.4068C62.4245 72.3264 63.2441 71.5036 63.2579 70.4856V44.0154L64.9297 45.3694C65.6726 45.9694 66.7551 45.8832 67.394 45.1733L74.5114 37.3333C74.8537 36.9644 75.0292 36.4708 74.9965 35.9684ZM52.1876 6.28584H57.995V21.6152L52.1876 16.9779V6.28584ZM59.6283 68.7148H15.3473V41.107L37.4878 23.3993L59.6283 41.107V68.7148ZM65.8492 41.4698L38.6224 19.6576C37.9594 19.1268 37.0168 19.1268 36.3539 19.6576L9.12636 41.4698L4.45399 36.3249L37.4878 9.9568L70.5216 36.3258L65.8492 41.4698Z" fill="#64378F"/>
<g clip-path="url(#clip1)">
<path d="M43.6147 52.4888C43.5995 52.3157 43.567 52.1454 43.5279 51.9758C43.4989 51.8039 43.4321 51.6416 43.3863 51.4735C43.3201 51.3131 43.2627 51.1476 43.1832 50.9932C43.1036 50.8385 43.0275 50.6816 42.9289 50.5365C42.8388 50.3837 42.7363 50.2456 42.6322 50.1103C42.4199 49.8318 42.1733 49.5855 41.9164 49.3518C41.6544 49.1246 41.383 48.9094 41.0993 48.712C40.8176 48.5128 40.527 48.3249 40.2307 48.1487C39.9359 47.9697 39.6348 47.8011 39.3302 47.6397C39.0495 47.4844 38.7595 47.347 38.473 47.2018L38.5228 39.7872L38.8713 39.812C39.0422 39.8257 39.2112 39.855 39.3808 39.8756C39.5518 39.8939 39.7163 39.9396 39.8844 39.9701C40.0538 39.9981 40.2148 40.0558 40.3791 40.0988C40.5452 40.1386 40.6999 40.2093 40.8604 40.2647C41.0221 40.3172 41.1685 40.4036 41.3232 40.4711C41.4772 40.5415 41.616 40.6379 41.7637 40.7193C41.8376 40.7604 41.9015 40.8156 41.9712 40.8627L42.1755 41.0101L42.1806 41.014C42.2118 41.0362 42.2497 41.0492 42.2908 41.0495C42.3952 41.0502 42.4808 40.9661 42.4811 40.8614L42.4977 38.3967V38.386C42.498 38.3221 42.4652 38.2601 42.4067 38.2259L42.1705 38.0884C42.0929 38.0389 42.0101 38.0069 41.9283 37.9706C41.7656 37.8934 41.5995 37.8368 41.4314 37.7846C41.2652 37.7236 41.0947 37.6928 40.9259 37.648C40.7572 37.6024 40.5866 37.5815 40.4167 37.5473C40.2467 37.5122 40.0761 37.4981 39.9055 37.473C39.7355 37.4477 39.565 37.4332 39.3944 37.4186C39.1286 37.3909 38.8635 37.3779 38.5977 37.3641L38.6133 35.0331C38.6142 34.8962 38.5038 34.7844 38.3669 34.7834H38.3637L36.8557 34.7734C36.7133 34.7725 36.5972 34.8871 36.596 35.0295V35.0332L36.5804 37.4089L36.2902 37.458C36.1158 37.4966 35.9431 37.5438 35.769 37.5868C35.5973 37.6366 35.4287 37.7006 35.2586 37.7573C35.0904 37.8208 34.9277 37.9 34.7629 37.9712C34.6012 38.0496 34.4457 38.1428 34.2871 38.2285C34.1332 38.3224 33.9866 38.428 33.8359 38.5279C33.69 38.6373 33.5485 38.7585 33.4054 38.8743C33.2744 38.9929 33.1563 39.1126 33.0312 39.2318C32.8925 39.3789 32.7884 39.507 32.6652 39.6461C32.5535 39.7882 32.4515 39.9384 32.3439 40.0851C32.2474 40.239 32.1583 40.3983 32.0655 40.5548C31.9881 40.7199 31.9097 40.8853 31.8373 41.0527C31.779 41.2256 31.7132 41.3966 31.6629 41.572C31.6226 41.7503 31.5717 41.924 31.5415 42.1072C31.5182 42.2893 31.4821 42.484 31.4725 42.6564L31.4597 42.9135L31.4528 43.0422C31.4523 43.0704 31.4497 43.0698 31.4504 43.1218L31.4524 43.1893C31.4592 43.5498 31.4791 43.9136 31.5522 44.2717C31.6135 44.6316 31.7214 44.9849 31.8566 45.3265C31.9906 45.6543 32.1907 46.0249 32.3772 46.2899C32.4848 46.4568 32.6108 46.5885 32.7278 46.7384C32.8572 46.8684 32.9859 47 33.1186 47.1253L33.5316 47.4737L33.9605 47.7905C34.2529 47.9887 34.5452 48.1889 34.8484 48.3633C35.1476 48.5477 35.4536 48.7141 35.76 48.8802C35.9933 49.0089 36.2309 49.1266 36.4679 49.2463L36.4226 55.9692C36.3571 55.9655 36.2913 55.9626 36.2257 55.9574C36.0162 55.9247 35.8049 55.8973 35.5967 55.8616L34.9862 55.72L34.3419 55.5186C34.2623 55.4969 34.1475 55.4447 34.0521 55.4097L33.7522 55.2919C33.5501 55.2171 33.3693 55.1105 33.1763 55.0217C32.9821 54.9335 32.8189 54.8084 32.6379 54.705C32.5453 54.6553 32.4734 54.5841 32.3916 54.5239L32.1516 54.337L32.1322 54.3211C32.0523 54.2594 31.9525 54.2222 31.844 54.2215C31.582 54.2196 31.3688 54.4306 31.3672 54.6916L31.3502 57.2143L31.3499 57.2296C31.3492 57.3862 31.4291 57.5393 31.5738 57.6256L31.8769 57.8054C31.979 57.8625 32.0763 57.9309 32.183 57.9782C32.3951 58.075 32.6009 58.1919 32.8196 58.2705C33.0379 58.3494 33.2516 58.4471 33.4756 58.5048C33.6982 58.5678 33.918 58.6442 34.1438 58.6862C34.3687 58.7323 34.5926 58.7919 34.8191 58.8193C35.0454 58.8485 35.2715 58.8966 35.498 58.91C35.7244 58.9275 35.9514 58.9555 36.1776 58.9641L36.3283 58.9689L36.3113 61.4917C36.3098 61.7906 36.5502 62.0343 36.8485 62.0366H36.8556L38.3632 62.0465C38.6678 62.0484 38.9158 61.8036 38.9183 61.4993V61.492L38.9387 58.3464L38.9397 58.2368C39.01 58.2216 39.0772 58.2025 39.1463 58.1856C39.2214 58.1712 39.2965 58.1554 39.3707 58.135C39.5387 58.0987 39.6994 58.0382 39.8637 57.9867C40.0285 57.9383 40.1874 57.8724 40.3456 57.8062C40.5066 57.7454 40.6616 57.6706 40.8137 57.59L41.0429 57.4723L41.2626 57.3364C41.3355 57.2905 41.4099 57.247 41.4809 57.1989L41.6881 57.0432C41.8304 56.9439 41.958 56.8293 42.0834 56.7122C42.2143 56.6018 42.3304 56.4703 42.4454 56.3433C42.5679 56.2208 42.664 56.0769 42.7694 55.9394C42.9731 55.6605 43.1358 55.3534 43.2758 55.0367C43.3385 54.8757 43.3933 54.711 43.4489 54.5475C43.4871 54.3785 43.5349 54.212 43.5648 54.0411C43.5861 53.8695 43.6208 53.6964 43.6304 53.5254C43.6358 53.3526 43.6549 53.1861 43.6488 53.008C43.6415 52.8348 43.6415 52.6608 43.6147 52.4888ZM39.3134 50.4168L39.5407 50.5918L39.7507 50.7876C39.8895 50.9184 40.0333 51.0439 40.1486 51.1953C40.2689 51.3417 40.4 51.4792 40.4898 51.6445L40.639 51.8822C40.6896 51.9605 40.7154 52.0516 40.7546 52.1346C40.7895 52.2202 40.8297 52.3043 40.8609 52.3893L40.9217 52.6497C40.977 52.812 40.9704 53.016 40.9838 53.2064L40.9872 53.279L40.9891 53.315C40.9872 53.2961 40.9872 53.3295 40.9863 53.3343L40.9754 53.4719C40.9717 53.5642 40.9564 53.6539 40.9417 53.744C40.9137 53.9238 40.8663 54.0979 40.8042 54.2647C40.7437 54.4324 40.6597 54.5878 40.5671 54.7358C40.4655 54.8784 40.3567 55.0143 40.2281 55.1324C40.1002 55.2511 39.9626 55.3593 39.8105 55.4497C39.7366 55.4971 39.6599 55.5411 39.5787 55.5789C39.5011 55.6206 39.4203 55.6579 39.3356 55.69C39.172 55.761 38.9988 55.8164 38.8244 55.865C38.7888 55.8755 38.7515 55.8832 38.7149 55.8925L38.9253 50.1304C39.0594 50.2195 39.1851 50.32 39.3134 50.4168ZM35.9028 45.8113C35.7492 45.6969 35.5964 45.5815 35.4646 45.447C35.3281 45.3165 35.1853 45.1983 35.0715 45.039L34.8908 44.8139C34.8435 44.7488 34.8015 44.655 34.7565 44.5774C34.7154 44.4945 34.661 44.4189 34.6303 44.3312L34.543 44.0676C34.471 43.8961 34.4622 43.7108 34.4276 43.5335C34.3848 43.3619 34.4047 43.156 34.3931 42.9676L34.3891 42.8235C34.3872 42.7965 34.3947 42.7372 34.3969 42.6954C34.4038 42.6039 34.4087 42.5122 34.4259 42.423C34.4517 42.2431 34.4918 42.0658 34.5524 41.8976C34.5792 41.8118 34.6128 41.7291 34.6513 41.6489C34.6851 41.5664 34.7291 41.4896 34.7738 41.413C34.8621 41.2591 34.9559 41.1342 35.0886 40.9795C35.2018 40.8611 35.3464 40.7431 35.4706 40.6244C35.6163 40.5267 35.7669 40.4368 35.9143 40.3448C36.0789 40.2807 36.2394 40.2099 36.4032 40.1489L36.5078 40.1246L36.2926 46.0903C36.159 46.0034 36.0296 45.9085 35.9028 45.8113Z" fill="#64378F"/>
</g>
</g>
<defs>
<clipPath id="clip0">
<rect width="75" height="75" fill="white"/>
</clipPath>
<clipPath id="clip1">
<rect x="23.8635" y="34.7734" width="27.2727" height="27.2727" fill="white"/>
</clipPath>
</defs>
</svg>
