<svg width="75" height="75" viewBox="0 0 75 75" fill="none" xmlns="http://www.w3.org/2000/svg">
<path d="M4.5633 42.1875C4.54777 26.6544 17.1271 14.0499 32.6602 14.0344C44.0313 14.0229 54.2906 20.86 58.6571 31.3594L62.993 29.5547C58.5391 18.8971 48.8096 11.3663 37.3758 9.72656V4.6875H39.7196C42.3084 4.6875 44.4071 2.58882 44.4071 0L25.657 0.140625C25.6512 0.0938965 25.6512 0.0467285 25.657 0H20.9695C20.9695 2.58882 23.0682 4.6875 25.657 4.6875H28.0008V9.75C10.0855 12.4784 -2.22582 29.2134 0.502456 47.1287C2.92926 63.0634 16.5703 74.8759 32.6883 75V70.3125C17.1552 70.3125 4.5633 57.7206 4.5633 42.1875Z" fill="#64378F"/>
<path d="M35.032 25.7812H30.3445V42.1875C30.3409 42.8105 30.5855 43.4092 31.0242 43.8516L33.368 46.1953L36.6726 42.8906L35.032 41.2266V25.7812Z" fill="#64378F"/>
<path d="M56.1257 37.5C45.7705 37.5 37.3757 45.8947 37.3757 56.25C37.3757 66.6053 45.7705 75 56.1257 75C66.481 75 74.8758 66.6053 74.8758 56.25C74.8758 45.8947 66.481 37.5 56.1257 37.5ZM56.1257 70.3125C48.3593 70.3125 42.0632 64.0165 42.0632 56.25C42.0632 48.4835 48.3593 42.1875 56.1257 42.1875C63.8922 42.1875 70.1883 48.4835 70.1883 56.25C70.1883 64.0165 63.8922 70.3125 56.1257 70.3125Z" fill="#64378F"/>
<path d="M53.7822 57.6328L50.7588 54.6094L47.4541 57.9141L52.1416 62.6016C53.0558 63.5104 54.5321 63.5104 55.4463 62.6016L64.8213 53.2266L61.5166 49.9219L53.7822 57.6328Z" fill="#64378F"/>
</svg>
